# xmcd
#
# Track frame offsets: 
#        150
#        12645
#        23285
#        33310
#        41995
#        51812
#        63177
#        78682
#        89790
#        105405
#        118242
#        133667
#        145887
#        155085
#        165277
#        172627
#
# Disc length: 2463 seconds
#
# Revision: 6
# Processed by: cddbd v1.5.2PL0 Copyright (c) Steve Scherf et al.
# Submitted via: ExactAudioCopy v0.99pb5
#
DISCID=cf099d10
DTITLE=Various Artist - Country - Country Greats
DYEAR=2005
DGENRE=Country
TTITLE0=Glen Campbell - By The Time I Get To Phoenix 
TTITLE1=Roger Miller - King Of The Road 
TTITLE2=Dave Dudley - Six Days On The Road 
TTITLE3=Patsy Cline - Ain't No Wheels On This Ship 
TTITLE4=Cowboy Copas - A Thousand Miles Of Ocean 
TTITLE5=Gene Autry - The Last Mile Home 
TTITLE6=Bill Anderson - We May Never Pass This Way Again 
TTITLE7=Bobby Bare - That's How I Got To Memphis 
TTITLE8=Cash McCall - Across The Wide Missouri 
TTITLE9=Billie Jo Spears - He's On The Run Again 
TTITLE10=Bobby Bare - Leaving On A Jet Plane 
TTITLE11=Red Simpson - Roll, Truck, Roll 
TTITLE12=Conway Twitty - This Road That I Walk 
TTITLE13=Roy Clark - Back In The Race 
TTITLE14=Faron Young - Back Track 
TTITLE15=Clifford James - Sing A Travelling Song 
EXTD=CDDBSort:various,all_time_country_legends - YEAR: 2005
EXTT0=
EXTT1=
EXTT2=
EXTT3=
EXTT4=
EXTT5=
EXTT6=
EXTT7=
EXTT8=
EXTT9=
EXTT10=
EXTT11=
EXTT12=
EXTT13=
EXTT14=
EXTT15=
PLAYORDER=
